<svg width="232" height="48" viewBox="0 0 232 48" fill="none" xmlns="http://www.w3.org/2000/svg">
<path d="M15.8002 0.200012C15.8002 0.200012 0.200195 23.6 0.200195 32.2C0.200195 40.8 7.20019 47.8 15.8002 47.8C24.4002 47.8 31.4002 40.8 31.4002 32.2C31.4002 23.6 15.8002 0.200012 15.8002 0.200012ZM26.3002 32.3C25.3002 37.3 20.9002 40.9 15.8002 40.9C10.7002 40.9 6.30019 37.3 5.30019 32.3C5.20019 31.8 5.5002 31.3 6.10019 31.2C6.60019 31.1 7.1002 31.4 7.2002 32C8.0002 36.1 11.7002 39 15.8002 39C20.0002 39 23.6002 36 24.4002 32C24.5002 31.5 25.0002 31.1 25.5002 31.2C26.1002 31.3 26.4002 31.8 26.3002 32.3Z" fill="#BB0A08"/>
<path d="M58.9004 19.7C55.9004 19.7 53.3004 21 52.0004 24.1V13.5C52.0004 13 51.6004 12.6 51.1004 12.6H43.3004C42.8004 12.6 42.4004 13 42.4004 13.5V40.7H52.0004V34.7C52.0004 29.3 52.8004 26.1 54.7004 26.1C55.8004 26.1 56.0004 27.4 56.0004 29.6V40.7H65.4004V27.6C65.3004 22.7 63.7004 19.7 58.9004 19.7Z" fill="#BB0A08"/>
<path d="M77.1003 33.4C82.8003 33 88.0003 30.7 88.0003 25.9C88.0003 21.8 84.1003 19.7 79.2003 19.7C72.1003 19.7 66.8003 23.9 66.8003 31.4C66.8003 39.3 72.8003 41.6 78.8003 41.6C82.1003 41.6 84.7003 40.9 86.7003 39.6C86.9003 39.5 87.1003 39.2 87.1003 38.9L87.3003 34.7C87.3003 34.1 86.7003 33.6 86.1003 33.9C84.5003 34.7 82.5003 35 80.9003 35C79.0003 35 77.8003 34.5 77.1003 33.4ZM78.8003 24.9C79.4003 24.9 80.1003 25.1 80.1003 26.2C80.1003 27.8 78.5003 28.7 76.3003 29.1C76.5003 26.3 77.3003 24.9 78.8003 24.9Z" fill="#BB0A08"/>
<path d="M118 19.7C114.9 19.7 112.6 21.1 111.4 24.8C111 21.6 109 19.7 105.4 19.7C102.2 19.7 99.9005 21.2 98.7005 25.1L98.2005 21.2C98.1005 20.8 97.8005 20.4 97.4005 20.4H90.4005C89.9005 20.4 89.5005 20.8 89.5005 21.3V40.7H98.9005V34.7C98.9005 29.3 98.9005 26.1 100.8 26.1C101.8 26.1 102.1 27.4 102.1 29.6V40.7H111.5V34.7C111.5 29.3 111.5 26.1 113.4 26.1C114.5 26.1 114.7 27.4 114.7 29.6V40.7H124.1V27.6C124.2 22.7 122.5 19.7 118 19.7Z" fill="#BB0A08"/>
<path d="M137.4 19.7C130.3 19.7 125.5 23.8 125.5 30.9C125.5 38 130.3 41.6 137.2 41.6C144.2 41.6 148.9 38 148.9 30.8C149.1 24 144.7 19.7 137.4 19.7ZM137.3 36.4C135.8 36.4 135.1 35.1 135.1 30.6C135.1 26.5 135.6 24.9 137.3 24.9C139 24.9 139.4 26.5 139.4 30.6C139.5 35 139 36.4 137.3 36.4Z" fill="#BB0A08"/>
<path d="M161.8 37.8C157.6 37.8 155.6 35.2 155.6 31.1C155.6 26.3 158.3 23.9 162.2 23.9C163.2 23.9 164.2 24.1 165.1 24.4C165.6 24.6 166.2 24.2 166.2 23.6L166.3 22C166.3 21.6 166.1 21.3 165.8 21.2C164.4 20.6 162.7 20.4 161.2 20.4C155.1 20.4 150.7 24.1 150.7 31C150.7 37.4 154.3 41.3 160.7 41.3C162.4 41.3 164.7 40.9 166.2 39.9C166.4 39.7 166.6 39.5 166.6 39.2V37.8C166.6 37.2 166 36.8 165.4 37C164.4 37.6 163.2 37.8 161.8 37.8Z" fill="#262626"/>
<path d="M170.8 12.2C168.6 11.8 166.7 13.9 167.4 16.1C167.7 16.9 168.4 17.6 169.2 17.9C171.4 18.7 173.5 16.8 173.1 14.5C172.9 13.4 171.9 12.4 170.8 12.2ZM167.9 21.8V40.8H172.5V21.8C172.5 21.3 172.1 20.9 171.6 20.9H168.7C168.2 21 167.9 21.4 167.9 21.8Z" fill="#262626"/>
<path d="M183.8 20.4C177.8 20.4 173.9 24.4 173.9 30.9C173.9 37.4 177.7 41.3 183.7 41.3C189.7 41.3 193.6 37.4 193.6 30.9C193.6 24.5 190 20.4 183.8 20.4ZM183.8 38.5C180.5 38.5 178.7 36 178.7 30.9C178.7 25.9 180.5 23.4 183.8 23.4C187.1 23.4 188.9 26 188.9 30.9C188.9 35.9 187.1 38.5 183.8 38.5Z" fill="#262626"/>
<path d="M207.201 20.4C203.801 20.4 201.201 22.3 199.701 25.5L199.401 21.8C199.401 21.4 199.001 21 198.601 21H196.001C195.501 21 195.101 21.4 195.101 21.9V40.9H199.701V32C199.701 27.7 202.101 23.8 205.401 23.8C207.801 23.8 208.301 25.9 208.301 29.5V40.7H212.901V27.9C212.901 22.6 211.001 20.4 207.201 20.4Z" fill="#262626"/>
<path d="M219.001 32.4C225.601 32.5 231.601 30.3 231.601 25.5C231.601 22.1 228.601 20.5 224.801 20.5C218.601 20.5 214.101 24.8 214.101 31.6C214.101 38.2 218.501 41.4 224.101 41.4C226.601 41.4 229.101 40.8 231.001 39.5C231.201 39.3 231.301 39.1 231.301 38.8V37.5C231.301 36.8 230.601 36.4 230.001 36.7C228.401 37.6 226.501 37.9 224.901 37.9C221.301 37.9 219.401 35.9 219.001 32.4ZM224.601 23.3C225.901 23.3 227.601 23.7 227.601 25.6C227.601 28.7 223.301 29.8 219.001 29.9C219.201 25.6 221.601 23.3 224.601 23.3Z" fill="#262626"/>
</svg>
