<svg width="149" height="227" viewBox="0 0 149 227" fill="none" xmlns="http://www.w3.org/2000/svg">
<g clip-path="url(#clip0_2732_2593)">
<path d="M148.616 152.616C148.616 193.655 115.347 226.923 74.3089 226.923C33.2693 226.923 0 193.655 0 152.616C0 111.576 74.3089 0 74.3089 0C74.3089 0 148.616 111.576 148.616 152.616Z" fill="#BB0A08"/>
<path d="M74.3104 194.324C50.039 194.324 28.8968 177.091 24.0387 153.346C23.5137 150.782 25.1655 148.281 27.7272 147.756C30.2938 147.23 32.7921 148.884 33.317 151.447C37.2791 170.803 54.5174 184.853 74.3104 184.853C94.1017 184.853 111.342 170.803 115.304 151.447C115.827 148.884 118.329 147.23 120.894 147.756C123.455 148.281 125.107 150.782 124.582 153.346C119.724 177.091 98.5819 194.324 74.3104 194.324Z" fill="white"/>
</g>
<defs>
<clipPath id="clip0_2732_2593">
<rect width="148.768" height="227" fill="white"/>
</clipPath>
</defs>
</svg>
