<svg width="98" height="20" viewBox="0 0 98 20" fill="none" xmlns="http://www.w3.org/2000/svg">
<path d="M7.29297 0.083374C7.29297 0.083374 0.792969 9.83337 0.792969 13.4167C0.792969 17 3.70963 19.9167 7.29297 19.9167C10.8763 19.9167 13.793 17 13.793 13.4167C13.793 9.83337 7.29297 0.083374 7.29297 0.083374ZM11.668 13.4584C11.2513 15.5417 9.41797 17.0417 7.29297 17.0417C5.16797 17.0417 3.33463 15.5417 2.91797 13.4584C2.8763 13.25 3.0013 13.0417 3.2513 13C3.45964 12.9584 3.66797 13.0834 3.70964 13.3334C4.04297 15.0417 5.58463 16.25 7.29297 16.25C9.04297 16.25 10.543 15 10.8763 13.3334C10.918 13.125 11.1263 12.9584 11.3346 13C11.5846 13.0417 11.7096 13.25 11.668 13.4584Z" fill="#F2F2F2"/>
<path d="M25.25 8.20675C24 8.20675 22.9167 8.74841 22.375 10.0401V5.62341C22.375 5.41508 22.2083 5.24841 22 5.24841H18.75C18.5417 5.24841 18.375 5.41508 18.375 5.62341V16.9567H22.375V14.4567C22.375 12.2067 22.7083 10.8734 23.5 10.8734C23.9583 10.8734 24.0417 11.4151 24.0417 12.3317V16.9567H27.9583V11.4984C27.9167 9.45675 27.25 8.20675 25.25 8.20675Z" fill="#F2F2F2"/>
<path d="M32.8346 13.9145C35.2096 13.7478 37.3763 12.7895 37.3763 10.7895C37.3763 9.08118 35.7513 8.20618 33.7096 8.20618C30.7513 8.20618 28.543 9.95618 28.543 13.0812C28.543 16.3728 31.043 17.3312 33.543 17.3312C34.918 17.3312 36.0013 17.0395 36.8346 16.4978C36.918 16.4562 37.0013 16.3312 37.0013 16.2062L37.0846 14.4562C37.0846 14.2062 36.8346 13.9978 36.5846 14.1228C35.918 14.4562 35.0846 14.5812 34.418 14.5812C33.6263 14.5812 33.1263 14.3728 32.8346 13.9145ZM33.543 10.3728C33.793 10.3728 34.0846 10.4562 34.0846 10.9145C34.0846 11.5812 33.418 11.9562 32.5013 12.1228C32.5846 10.9562 32.918 10.3728 33.543 10.3728Z" fill="#F2F2F2"/>
<path d="M49.875 8.20618C48.5833 8.20618 47.625 8.78951 47.125 10.3312C46.9583 8.99784 46.125 8.20618 44.625 8.20618C43.2917 8.20618 42.3333 8.83118 41.8333 10.4562L41.625 8.83118C41.5833 8.66451 41.4583 8.49784 41.2917 8.49784H38.375C38.1667 8.49784 38 8.66451 38 8.87284V16.9562H41.9167V14.4562C41.9167 12.2062 41.9167 10.8728 42.7083 10.8728C43.125 10.8728 43.25 11.4145 43.25 12.3312V16.9562H47.1667V14.4562C47.1667 12.2062 47.1667 10.8728 47.9583 10.8728C48.4167 10.8728 48.5 11.4145 48.5 12.3312V16.9562H52.4167V11.4978C52.4583 9.45618 51.75 8.20618 49.875 8.20618Z" fill="#F2F2F2"/>
<path d="M57.9583 8.20618C55 8.20618 53 9.91451 53 12.8728C53 15.8312 55 17.3312 57.875 17.3312C60.7917 17.3312 62.75 15.8312 62.75 12.8312C62.8333 9.99784 61 8.20618 57.9583 8.20618ZM57.9167 15.1645C57.2917 15.1645 57 14.6228 57 12.7478C57 11.0395 57.2083 10.3728 57.9167 10.3728C58.625 10.3728 58.7917 11.0395 58.7917 12.7478C58.8333 14.5812 58.625 15.1645 57.9167 15.1645Z" fill="#F2F2F2"/>
<path d="M68.125 15.7488C66.375 15.7488 65.5417 14.6654 65.5417 12.9571C65.5417 10.9571 66.6667 9.95711 68.2917 9.95711C68.7083 9.95711 69.125 10.0404 69.5 10.1654C69.7083 10.2488 69.9583 10.0821 69.9583 9.83211L70 9.16545C70 8.99878 69.9167 8.87378 69.7917 8.83211C69.2083 8.58211 68.5 8.49878 67.875 8.49878C65.3333 8.49878 63.5 10.0404 63.5 12.9154C63.5 15.5821 65 17.2071 67.6667 17.2071C68.375 17.2071 69.3333 17.0404 69.9583 16.6238C70.0417 16.5404 70.125 16.4571 70.125 16.3321V15.7488C70.125 15.4988 69.875 15.3321 69.625 15.4154C69.2083 15.6654 68.7083 15.7488 68.125 15.7488Z" fill="#F2F2F2"/>
<path d="M71.8766 5.08219C70.9599 4.91552 70.1682 5.79052 70.4599 6.70719C70.5849 7.04052 70.8766 7.33219 71.2099 7.45719C72.1266 7.79052 73.0016 6.99886 72.8349 6.04052C72.7516 5.58219 72.3349 5.16552 71.8766 5.08219ZM70.6682 9.08219V16.9989H72.5849V9.08219C72.5849 8.87386 72.4182 8.70719 72.2099 8.70719H71.0016C70.7932 8.74886 70.6682 8.91552 70.6682 9.08219Z" fill="#F2F2F2"/>
<path d="M77.293 8.49878C74.793 8.49878 73.168 10.1654 73.168 12.8738C73.168 15.5821 74.7513 17.2071 77.2513 17.2071C79.7513 17.2071 81.3763 15.5821 81.3763 12.8738C81.3763 10.2071 79.8763 8.49878 77.293 8.49878ZM77.293 16.0404C75.918 16.0404 75.168 14.9988 75.168 12.8738C75.168 10.7904 75.918 9.74878 77.293 9.74878C78.668 9.74878 79.418 10.8321 79.418 12.8738C79.418 14.9571 78.668 16.0404 77.293 16.0404Z" fill="#F2F2F2"/>
<path d="M87.0417 8.49878C85.625 8.49878 84.5417 9.29045 83.9167 10.6238L83.7917 9.08211C83.7917 8.91544 83.625 8.74878 83.4583 8.74878H82.375C82.1667 8.74878 82 8.91545 82 9.12378V17.0404H83.9167V13.3321C83.9167 11.5404 84.9167 9.91544 86.2917 9.91544C87.2917 9.91544 87.5 10.7904 87.5 12.2904V16.9571H89.4167V11.6238C89.4167 9.41545 88.625 8.49878 87.0417 8.49878Z" fill="#F2F2F2"/>
<path d="M91.9596 13.4986C94.7096 13.5403 97.2096 12.6236 97.2096 10.6236C97.2096 9.20695 95.9596 8.54028 94.3763 8.54028C91.793 8.54028 89.918 10.3319 89.918 13.1653C89.918 15.9153 91.7513 17.2486 94.0846 17.2486C95.1263 17.2486 96.168 16.9986 96.9596 16.4569C97.043 16.3736 97.0846 16.2903 97.0846 16.1653V15.6236C97.0846 15.3319 96.793 15.1653 96.543 15.2903C95.8763 15.6653 95.0846 15.7903 94.418 15.7903C92.918 15.7903 92.1263 14.957 91.9596 13.4986ZM94.293 9.70695C94.8346 9.70695 95.543 9.87362 95.543 10.6653C95.543 11.9569 93.7513 12.4153 91.9596 12.457C92.043 10.6653 93.043 9.70695 94.293 9.70695Z" fill="#F2F2F2"/>
</svg>
