<svg width="59" height="88" viewBox="0 0 59 88" fill="none" xmlns="http://www.w3.org/2000/svg">
<g filter="url(#filter0_d_2_8)">
<path d="M29.7031 2.25195C30.3968 3.35206 31.3881 4.94079 32.5781 6.89258C34.9591 10.7975 38.1327 16.1528 41.3047 21.9561C44.4783 27.7623 47.6415 34.0012 50.0088 39.6777C52.3931 45.3952 53.9092 50.4042 53.9092 53.8037C53.9091 67.7466 42.9336 78.9999 29.4551 79C15.9759 79 5.00004 67.7466 5 53.8037C5 50.4042 6.51601 45.3952 8.90039 39.6777C11.2677 34.0013 14.4308 27.7623 17.6045 21.9561C20.7766 16.1528 23.95 10.7975 26.3311 6.89258C27.5213 4.94058 28.5133 3.35211 29.207 2.25195C29.2943 2.11352 29.3774 1.98305 29.4551 1.86035C29.5327 1.983 29.6159 2.11359 29.7031 2.25195Z" fill="#EE8E21" stroke="white" stroke-width="2"/>
<path d="M31.4149 7.60299C33.7884 11.4959 36.9495 16.8316 40.108 22.6101C43.2705 28.3963 46.4102 34.5881 48.7513 40.2026C51.1327 45.9131 52.544 50.7004 52.544 53.8033C52.544 67.0306 42.1433 77.6349 29.4545 77.6349C16.7653 77.6349 6.36506 67.0302 6.36506 53.8033C6.36513 50.7004 7.77615 45.9131 10.1577 40.2026C12.499 34.5882 15.6384 28.3963 18.8011 22.6101C21.9596 16.8317 25.1207 11.4959 27.4942 7.60299C28.2291 6.39805 28.8956 5.33597 29.4545 4.43892C30.0135 5.33601 30.68 6.39794 31.4149 7.60299Z" stroke="white" stroke-width="2"/>
</g>
<defs>
<filter id="filter0_d_2_8" x="0" y="0" width="58.9091" height="88" filterUnits="userSpaceOnUse" color-interpolation-filters="sRGB">
<feFlood flood-opacity="0" result="BackgroundImageFix"/>
<feColorMatrix in="SourceAlpha" type="matrix" values="0 0 0 0 0 0 0 0 0 0 0 0 0 0 0 0 0 0 127 0" result="hardAlpha"/>
<feOffset dy="4"/>
<feGaussianBlur stdDeviation="2"/>
<feComposite in2="hardAlpha" operator="out"/>
<feColorMatrix type="matrix" values="0 0 0 0 0 0 0 0 0 0 0 0 0 0 0 0 0 0 0.25 0"/>
<feBlend mode="normal" in2="BackgroundImageFix" result="effect1_dropShadow_2_8"/>
<feBlend mode="normal" in="SourceGraphic" in2="effect1_dropShadow_2_8" result="shape"/>
</filter>
</defs>
</svg>
