<svg width="22" height="30" viewBox="0 0 22 30" fill="none" xmlns="http://www.w3.org/2000/svg">
<g filter="url(#filter0_d_5011_3313)">
<path d="M18 14.796C18 18.7747 14.866 22 11.0001 22C7.13406 22 4 18.7747 4 14.796C4 10.8172 11.0001 0 11.0001 0C11.0001 0 18 10.8172 18 14.796Z" fill="#EE8E21"/>
<path d="M11.5391 2.09082C12.1918 3.16137 13.0611 4.62868 13.9297 6.21777C14.7994 7.80898 15.6628 9.51173 16.3066 11.0557C16.9615 12.6261 17.3496 13.9426 17.3496 14.7959C17.3496 18.4334 14.4894 21.3496 11 21.3496C7.51046 21.3496 4.65039 18.4333 4.65039 14.7959C4.65041 13.9426 5.03844 12.6261 5.69336 11.0557C6.33723 9.51174 7.20057 7.80897 8.07031 6.21777C8.9389 4.62871 9.80818 3.16136 10.4609 2.09082C10.663 1.75946 10.8463 1.46739 11 1.2207C11.1537 1.4674 11.337 1.75943 11.5391 2.09082Z" stroke="white" stroke-width="1.3"/>
</g>
<defs>
<filter id="filter0_d_5011_3313" x="0" y="0" width="22" height="30" filterUnits="userSpaceOnUse" color-interpolation-filters="sRGB">
<feFlood flood-opacity="0" result="BackgroundImageFix"/>
<feColorMatrix in="SourceAlpha" type="matrix" values="0 0 0 0 0 0 0 0 0 0 0 0 0 0 0 0 0 0 127 0" result="hardAlpha"/>
<feOffset dy="4"/>
<feGaussianBlur stdDeviation="2"/>
<feComposite in2="hardAlpha" operator="out"/>
<feColorMatrix type="matrix" values="0 0 0 0 0 0 0 0 0 0 0 0 0 0 0 0 0 0 0.25 0"/>
<feBlend mode="normal" in2="BackgroundImageFix" result="effect1_dropShadow_5011_3313"/>
<feBlend mode="normal" in="SourceGraphic" in2="effect1_dropShadow_5011_3313" result="shape"/>
</filter>
</defs>
</svg>
