<svg width="59" height="88" viewBox="0 0 59 88" fill="none" xmlns="http://www.w3.org/2000/svg">
<g filter="url(#filter0_d_1_3)">
<path d="M29.5762 2.33203C30.2695 3.4316 31.2606 5.01961 32.4502 6.9707C34.8303 10.8743 38.0024 16.2269 41.1729 22.0273C44.3453 27.8314 47.5057 34.0657 49.8701 39.7354C52.2541 45.4521 53.7588 50.4368 53.7588 53.8037C53.7587 67.6679 42.8467 78.8495 29.4551 78.8496C16.0628 78.8496 5.15043 67.6679 5.15039 53.8037C5.15039 50.4368 6.65498 45.4521 9.03906 39.7354C11.4035 34.0657 14.5638 27.8314 17.7363 22.0273C20.9069 16.2269 24.0788 10.8743 26.459 6.9707C27.6488 5.01943 28.6406 3.43164 29.334 2.33203C29.3752 2.26663 29.415 2.20254 29.4541 2.14062C29.4934 2.20276 29.5348 2.26638 29.5762 2.33203Z" fill="#3DD0BF" stroke="white" stroke-width="2.3"/>
<path d="M31.4149 7.60298C33.7884 11.4959 36.9495 16.8316 40.108 22.6101C43.2705 28.3963 46.4102 34.5881 48.7513 40.2025C51.1327 45.9131 52.544 50.7004 52.544 53.8033C52.544 67.0305 42.1433 77.6349 29.4545 77.6349C16.7653 77.6349 6.36505 67.0302 6.36505 53.8033C6.36512 50.7004 7.77614 45.9131 10.1577 40.2025C12.499 34.5881 15.6384 28.3963 18.8011 22.6101C21.9596 16.8317 25.1207 11.4959 27.4942 7.60298C28.2291 6.39803 28.8956 5.33596 29.4545 4.43891C30.0135 5.336 30.68 6.39792 31.4149 7.60298Z" stroke="white" stroke-width="2.3"/>
</g>
<defs>
<filter id="filter0_d_1_3" x="0" y="0" width="58.9091" height="88" filterUnits="userSpaceOnUse" color-interpolation-filters="sRGB">
<feFlood flood-opacity="0" result="BackgroundImageFix"/>
<feColorMatrix in="SourceAlpha" type="matrix" values="0 0 0 0 0 0 0 0 0 0 0 0 0 0 0 0 0 0 127 0" result="hardAlpha"/>
<feOffset dy="4"/>
<feGaussianBlur stdDeviation="2"/>
<feComposite in2="hardAlpha" operator="out"/>
<feColorMatrix type="matrix" values="0 0 0 0 0 0 0 0 0 0 0 0 0 0 0 0 0 0 0.25 0"/>
<feBlend mode="normal" in2="BackgroundImageFix" result="effect1_dropShadow_1_3"/>
<feBlend mode="normal" in="SourceGraphic" in2="effect1_dropShadow_1_3" result="shape"/>
</filter>
</defs>
</svg>
