<svg width="12" height="12" viewBox="0 0 12 12" fill="none" xmlns="http://www.w3.org/2000/svg">
<mask id="mask0_5011_5464" style="mask-type:alpha" maskUnits="userSpaceOnUse" x="0" y="0" width="12" height="12">
<rect width="12" height="12" fill="#D9D9D9"/>
</mask>
<g mask="url(#mask0_5011_5464)">
<path d="M8.75 9.28463V10.2C8.75 10.3064 8.71408 10.3955 8.64225 10.4672C8.5705 10.5391 8.48142 10.575 8.375 10.575C8.26858 10.575 8.1795 10.5391 8.10775 10.4672C8.03592 10.3955 8 10.3064 8 10.2V8.60575C8 8.43592 8.0585 8.2925 8.1755 8.1755C8.2925 8.0585 8.43592 8 8.60575 8H10.2C10.3064 8 10.3955 8.03592 10.4672 8.10775C10.5391 8.1795 10.575 8.26858 10.575 8.375C10.575 8.48142 10.5391 8.5705 10.4672 8.64225C10.3955 8.71408 10.3064 8.75 10.2 8.75H9.27213L10.6135 10.0914C10.6827 10.1605 10.7172 10.2463 10.7172 10.3485C10.7172 10.4508 10.6827 10.5391 10.6135 10.6135C10.5391 10.691 10.45 10.729 10.3461 10.7274C10.2423 10.7258 10.1532 10.6878 10.0789 10.6135L8.75 9.28463ZM6 10.75C5.34358 10.75 4.72646 10.6252 4.14863 10.3755C3.57071 10.1258 3.06796 9.78721 2.64038 9.35963C2.21279 8.93204 1.87417 8.42929 1.6245 7.85138C1.37483 7.27354 1.25 6.65642 1.25 6C1.25 5.34358 1.37483 4.72646 1.6245 4.14863C1.87417 3.57071 2.21279 3.06796 2.64038 2.64037C3.06796 2.21279 3.57071 1.87417 4.14863 1.6245C4.72646 1.37483 5.34358 1.25 6 1.25C6.65642 1.25 7.27354 1.37483 7.85138 1.6245C8.42929 1.87417 8.93204 2.21279 9.35963 2.64037C9.78721 3.06796 10.1258 3.57071 10.3755 4.14863C10.6252 4.72646 10.75 5.34358 10.75 6C10.75 6.0865 10.7479 6.17975 10.7438 6.27975C10.7396 6.37975 10.7317 6.47304 10.7201 6.55963C10.7067 6.66604 10.662 6.75 10.586 6.8115C10.5101 6.87308 10.4163 6.90387 10.3048 6.90387C10.2067 6.90387 10.123 6.86154 10.0539 6.77688C9.98462 6.69229 9.95675 6.59938 9.97025 6.49813C9.98692 6.41154 9.99604 6.3285 9.99763 6.249C9.99921 6.1695 10 6.0865 10 6C10 5.81733 9.988 5.63546 9.964 5.45437C9.93992 5.27321 9.90225 5.09292 9.851 4.9135H7.99225C8.02367 5.09292 8.04646 5.27321 8.06062 5.45437C8.07471 5.63546 8.08175 5.81733 8.08175 6C8.08175 6.0865 8.08096 6.1785 8.07937 6.276C8.07771 6.37342 8.07271 6.46537 8.06438 6.55188C8.05096 6.65829 8.00704 6.74354 7.93262 6.80762C7.85829 6.87179 7.76792 6.90387 7.6615 6.90387C7.56342 6.90387 7.47771 6.86413 7.40437 6.78463C7.33096 6.70512 7.30096 6.61475 7.31438 6.5135C7.32271 6.42692 7.32771 6.34133 7.32937 6.25675C7.33096 6.17208 7.33175 6.0865 7.33175 6C7.33175 5.81733 7.32471 5.63546 7.31062 5.45437C7.29646 5.27321 7.27371 5.09292 7.24238 4.9135H4.75762C4.72629 5.09292 4.70354 5.27321 4.68937 5.45437C4.67529 5.63546 4.66825 5.81733 4.66825 6C4.66825 6.18267 4.67529 6.36454 4.68937 6.54563C4.70354 6.72679 4.72629 6.90708 4.75762 7.0865H6.22113C6.32754 7.0865 6.41667 7.12242 6.4885 7.19425C6.56025 7.266 6.59613 7.35508 6.59613 7.4615C6.59613 7.56792 6.56025 7.65704 6.4885 7.72888C6.41667 7.80063 6.32754 7.8365 6.22113 7.8365H4.92975C5.03942 8.23008 5.18221 8.6075 5.35813 8.96875C5.53413 9.33 5.74808 9.67021 6 9.98938C6.08975 9.98938 6.1795 9.98987 6.26925 9.99088C6.359 9.99179 6.44712 9.9865 6.53363 9.975C6.63688 9.9615 6.72308 9.98808 6.79225 10.0548C6.8615 10.1214 6.89613 10.2064 6.89613 10.3096C6.89613 10.4211 6.86746 10.5141 6.81012 10.5885C6.75271 10.6628 6.67079 10.7067 6.56438 10.7201C6.47788 10.7317 6.38462 10.7396 6.28463 10.7438C6.18463 10.7479 6.08975 10.75 6 10.75ZM2.149 7.0865H4.00775C3.97633 6.90708 3.95354 6.72679 3.93937 6.54563C3.92529 6.36454 3.91825 6.18267 3.91825 6C3.91825 5.81733 3.92529 5.63546 3.93937 5.45437C3.95354 5.27321 3.97633 5.09292 4.00775 4.9135H2.149C2.09775 5.09292 2.06008 5.27321 2.036 5.45437C2.012 5.63546 2 5.81733 2 6C2 6.18267 2.012 6.36454 2.036 6.54563C2.06008 6.72679 2.09775 6.90708 2.149 7.0865ZM5.03175 9.8615C4.8305 9.54933 4.65758 9.22371 4.513 8.88463C4.36842 8.54554 4.25062 8.19617 4.15962 7.8365H2.4635C2.72433 8.35125 3.07817 8.78554 3.525 9.13938C3.97183 9.49329 4.47408 9.734 5.03175 9.8615ZM2.4635 4.1635H4.15962C4.24421 3.80067 4.358 3.44971 4.501 3.11062C4.64392 2.77146 4.82083 2.44742 5.03175 2.1385C4.47083 2.26283 3.96779 2.50192 3.52262 2.85575C3.07737 3.20958 2.72433 3.6455 2.4635 4.1635ZM4.92975 4.1635H7.07025C6.96383 3.76992 6.82021 3.39413 6.63938 3.03613C6.45863 2.67804 6.2455 2.33621 6 2.01062C5.75125 2.32979 5.53729 2.67 5.35813 3.03125C5.17896 3.3925 5.03617 3.76992 4.92975 4.1635ZM7.84037 4.1635H9.5365C9.27567 3.6455 8.92263 3.20879 8.47738 2.85338C8.03221 2.49788 7.52917 2.25958 6.96825 2.1385C7.1695 2.45067 7.34 2.77708 7.47975 3.11775C7.6195 3.4585 7.73971 3.80708 7.84037 4.1635Z" fill="#8E0F0E"/>
</g>
</svg>
