<svg width="12" height="12" viewBox="0 0 12 12" fill="none" xmlns="http://www.w3.org/2000/svg">
<path d="M6 0.337402C3.4125 0.337402 1.3125 2.3624 1.3125 4.85615C1.3125 6.7499 3.825 9.7499 5.30625 11.3624C5.49375 11.5687 5.7375 11.6624 6 11.6624C6.2625 11.6624 6.50625 11.5499 6.69375 11.3624C8.175 9.7499 10.6875 6.7499 10.6875 4.85615C10.6875 2.3624 8.5875 0.337402 6 0.337402ZM6.075 10.7999C6.0375 10.8374 5.98125 10.8374 5.925 10.7999C4.10625 8.8124 2.15625 6.2249 2.15625 4.85615C2.15625 2.83115 3.88125 1.18115 6 1.18115C8.11875 1.18115 9.84375 2.83115 9.84375 4.85615C9.84375 6.2249 7.89375 8.8124 6.075 10.7999Z" fill="#8E0F0E"/>
<path d="M6.00078 2.94385C4.87578 2.94385 3.95703 3.8626 3.95703 4.9876C3.95703 6.1126 4.87578 7.0501 6.00078 7.0501C7.12578 7.0501 8.04453 6.13135 8.04453 5.00635C8.04453 3.88135 7.12578 2.94385 6.00078 2.94385ZM6.00078 6.20635C5.32578 6.20635 4.80078 5.6626 4.80078 5.00635C4.80078 4.3501 5.34453 3.80635 6.00078 3.80635C6.65703 3.80635 7.20078 4.3501 7.20078 5.00635C7.20078 5.6626 6.67578 6.20635 6.00078 6.20635Z" fill="#8E0F0E"/>
</svg>
